name D:\school\WTK\thesis\model\3dpredictsim\Results\MidTarsalJoint\Fal_s1_bCst_PF_Natali2010_ls148_MT_nl_fitted_Tmtp_ig24.mot
datacolumns 128
datarows 4
range 1.69615201 1.73007505
endheader
time	pelvis_tilt	pelvis_list	pelvis_rotation	pelvis_tx	pelvis_ty	pelvis_tz	hip_flexion_l	hip_adduction_l	hip_rotation_l	hip_flexion_r	hip_adduction_r	hip_rotation_r	knee_angle_l	knee_angle_r	ankle_angle_l	ankle_angle_r	subtalar_angle_l	subtalar_angle_r	tmt_angle_l	tmt_angle_r	mtp_angle_l	mtp_angle_r	lumbar_extension	lumbar_bending	lumbar_rotation	arm_flex_l	arm_add_l	arm_rot_l	arm_flex_r	arm_add_r	arm_rot_r	elbow_flex_l	elbow_flex_r	pro_sup_l	pro_sup_r	glut_med1_l/activation	glut_med2_l/activation	glut_med3_l/activation	glut_min1_l/activation	glut_min2_l/activation	glut_min3_l/activation	semimem_l/activation	semiten_l/activation	bifemlh_l/activation	bifemsh_l/activation	sar_l/activation	add_long_l/activation	add_brev_l/activation	add_mag1_l/activation	add_mag2_l/activation	add_mag3_l/activation	tfl_l/activation	pect_l/activation	grac_l/activation	glut_max1_l/activation	glut_max2_l/activation	glut_max3_l/activation	iliacus_l/activation	psoas_l/activation	quad_fem_l/activation	gem_l/activation	peri_l/activation	rect_fem_l/activation	vas_med_l/activation	vas_int_l/activation	vas_lat_l/activation	med_gas_l/activation	lat_gas_l/activation	soleus_l/activation	tib_post_l/activation	flex_dig_l/activation	flex_hal_l/activation	tib_ant_l/activation	per_brev_l/activation	per_long_l/activation	per_tert_l/activation	ext_dig_l/activation	ext_hal_l/activation	ercspn_l/activation	intobl_l/activation	extobl_l/activation	glut_med1_r/activation	glut_med2_r/activation	glut_med3_r/activation	glut_min1_r/activation	glut_min2_r/activation	glut_min3_r/activation	semimem_r/activation	semiten_r/activation	bifemlh_r/activation	bifemsh_r/activation	sar_r/activation	add_long_r/activation	add_brev_r/activation	add_mag1_r/activation	add_mag2_r/activation	add_mag3_r/activation	tfl_r/activation	pect_r/activation	grac_r/activation	glut_max1_r/activation	glut_max2_r/activation	glut_max3_r/activation	iliacus_r/activation	psoas_r/activation	quad_fem_r/activation	gem_r/activation	peri_r/activation	rect_fem_r/activation	vas_med_r/activation	vas_int_r/activation	vas_lat_r/activation	med_gas_r/activation	lat_gas_r/activation	soleus_r/activation	tib_post_r/activation	flex_dig_r/activation	flex_hal_r/activation	tib_ant_r/activation	per_brev_r/activation	per_long_r/activation	per_tert_r/activation	ext_dig_r/activation	ext_hal_r/activation	ercspn_r/activation	intobl_r/activation	extobl_r/activation	
          1.69615201	         -2.93002534	          1.97215993	         -5.23975517	          2.12019002	          0.91760811	          0.00330956	         29.51207448	          3.04495100	         -3.57204816	        -17.06329549	         -0.51495976	          6.34664736	         -9.65470440	         -5.91027760	          6.53064778	         -0.94926924	         -6.09254647	          5.59807706	          0.40681618	          5.43212544	         -0.75666852	         12.57972332	         -2.01438614	         -0.14316838	          1.97884211	         -4.88262907	        -13.47647254	          7.11061432	          4.95675737	        -13.45015762	         15.19857293	         16.71894727	         33.55268479	         86.51662706	         86.51662706	          0.05942304	          0.05942303	          0.05000011	          0.05942309	          0.05942307	          0.05737444	          0.23189347	          0.09194001	          0.16459210	          0.09146992	          0.05000015	          0.16744214	          0.21648557	          0.22622189	          0.20756145	          0.11098566	          0.05000013	          0.05000324	          0.15861422	          0.05000061	          0.05000078	          0.15650020	          0.05000177	          0.05000032	          0.21591134	          0.29984791	          0.13559417	          0.05000013	          0.07925424	          0.07983130	          0.07404521	          0.06882719	          0.07169153	          0.06420651	          0.05000003	          0.05000020	          0.05000022	          0.46767031	          0.24714778	          0.17838769	          0.21934937	          0.46852013	          0.21983294	          0.05942315	          0.12196318	          0.09974959	          0.25397410	          0.10797939	          0.08393191	          0.29140060	          0.19488996	          0.11854834	          0.05000098	          0.05000023	          0.05000012	          0.05381933	          0.11854669	          0.06242148	          0.05000231	          0.05000065	          0.05000120	          0.05000040	          0.32725750	          0.05943078	          0.05000763	          0.05000119	          0.05000073	          0.05000064	          0.47401007	          0.73040128	          0.05000014	          0.05000068	          0.07062536	          0.26330805	          0.05000021	          0.05000021	          0.05000021	          0.30813976	          0.41597083	          0.34755598	          0.29984408	          0.30339928	          0.37948916	          0.05000002	          0.05942277	          0.09373219	          0.05000022	          0.05000004	          0.05000016	          0.05000000	          0.05000003	          0.05000007	
          1.70745969	         -2.92878735	          2.06625868	         -5.55187042	          2.13700448	          0.91666326	          0.00311384	         29.01087698	          3.40554338	         -3.33041876	        -17.01000031	         -0.81868201	          6.13420385	        -10.30562171	         -7.73743029	          5.89266429	         -1.43034639	         -6.41186854	          6.50447007	          0.28811293	          5.03747727	         -0.76712102	         13.86126892	         -1.81812347	         -0.33251334	          2.04289795	         -5.76275594	        -13.47068426	          6.98366969	          4.76400902	        -13.45269349	         15.60360402	         16.30326466	         34.71577829	         86.51662706	         86.51662706	          0.05000000	          0.05000003	          0.08207599	          0.05000004	          0.05000004	          0.05000005	          0.19512078	          0.07736057	          0.13849178	          0.07696505	          0.07062253	          0.14089008	          0.30960580	          0.31026175	          0.19261288	          0.10610999	          0.05000022	          0.08392763	          0.13346882	          0.05000048	          0.09054859	          0.15571213	          0.05000027	          0.07062174	          0.55293162	          0.25229932	          0.11409232	          0.07062020	          0.06668837	          0.08171710	          0.06995213	          0.06760637	          0.07062202	          0.06293717	          0.05942310	          0.05016761	          0.05942318	          0.43708633	          0.20795852	          0.21726075	          0.18456651	          0.39422421	          0.18497279	          0.05000008	          0.10262276	          0.08393172	          0.21369999	          0.09085649	          0.07062236	          0.24519162	          0.16398516	          0.09974948	          0.05000293	          0.05000112	          0.05000175	          0.05000018	          0.09974819	          0.13025558	          0.05000170	          0.05942367	          0.05274863	          0.05942476	          0.27536247	          0.05000730	          0.05000341	          0.05001196	          0.05001113	          0.05008549	          0.39884356	          0.68097892	          0.05293430	          0.05895802	          0.05942597	          0.22155384	          0.15740711	          0.15640992	          0.13358522	          0.25927623	          0.35000794	          0.32070810	          0.27635815	          0.25528881	          0.33025181	          0.05000005	          0.05000009	          0.10728792	          0.05000013	          0.05000005	          0.05000023	          0.05550194	          0.07062201	          0.05942332	
          1.71876737	         -2.92340201	          2.16408885	         -5.83406519	          2.15414149	          0.91578503	          0.00293651	         28.39457045	          3.66092519	         -3.05512616	        -16.91397636	         -1.12677308	          5.90805333	        -11.06105106	         -9.63350950	          5.29394549	         -2.02704753	         -6.73251634	          7.37873449	          0.04929758	          4.49545800	         -0.70813181	         15.16927664	         -1.59888965	         -0.53377391	          2.09516992	         -6.68171536	        -13.47200742	          6.90198643	          4.49567308	        -13.44986598	         15.94551373	         15.95713985	         35.84729454	         86.51662706	         86.51662706	          0.22041549	          0.21032472	          0.21421620	          0.33088459	          0.23234016	          0.15922729	          0.16417938	          0.06509587	          0.11653037	          0.07804646	          0.05942379	          0.11854834	          0.26050982	          0.26106179	          0.16206926	          0.11208058	          0.05000053	          0.07061911	          0.11230416	          0.05000283	          0.10856823	          0.13102010	          0.05941808	          0.05942294	          0.46525002	          0.21229080	          0.18893014	          0.05942155	          0.05611325	          0.06875879	          0.05885945	          0.05688566	          0.05942311	          0.05295688	          0.05000012	          0.05000030	          0.05000046	          0.49831945	          0.34784023	          0.18280859	          0.26958145	          0.48707082	          0.15564077	          0.05256798	          0.13804030	          0.07062218	          0.28587170	          0.07644887	          0.05942340	          0.28765843	          0.13798117	          0.08393167	          0.05000097	          0.05000015	          0.05000013	          0.05000021	          0.08393084	          0.10960030	          0.05000096	          0.05000085	          0.05000098	          0.05000171	          0.30377316	          0.05006004	          0.05000066	          0.05000163	          0.05000100	          0.05000072	          0.33559696	          0.64999187	          0.05000015	          0.05000062	          0.05000263	          0.19751338	          0.13244693	          0.13160788	          0.11240249	          0.21816127	          0.29450514	          0.26985155	          0.23906892	          0.21480646	          0.27788222	          0.05000001	          0.09059814	          0.13355603	          0.05000010	          0.05000002	          0.05000010	          0.05000055	          0.05942306	          0.05000023	
          1.73007505	         -2.91601119	          2.25550664	         -6.07815360	          2.17140397	          0.91500460	          0.00273072	         27.73236902	          3.88143739	         -2.78383313	        -16.74095423	         -1.42796300	          5.68831343	        -11.74067045	        -11.63488495	          4.64895408	         -2.72439970	         -7.05224261	          8.22406004	          0.13861506	          3.80049630	         -0.65382724	         16.47403669	         -1.37998144	         -0.73658409	          2.13950635	         -7.59202205	        -13.47327688	          6.86256504	          4.18082686	        -13.45223699	         16.24397884	         15.65808089	         36.93337794	         86.51662706	         86.51662706	          0.30457998	          0.30553385	          0.32099102	          0.27841465	          0.20877733	          0.21852372	          0.13814451	          0.05477878	          0.09805151	          0.06567028	          0.05000094	          0.09974947	          0.21919929	          0.21966385	          0.13637002	          0.14458463	          0.05000055	          0.05942107	          0.09449592	          0.18436251	          0.16564917	          0.15085479	          0.05000009	          0.05000011	          0.39147261	          0.17862665	          0.15926408	          0.05000010	          0.05001558	          0.10868536	          0.09265750	          0.05000004	          0.05000015	          0.05000001	          0.05000012	          0.05000038	          0.05000036	          0.57360292	          0.32805065	          0.19669066	          0.39301996	          0.50183294	          0.26617383	          0.07857483	          0.11615046	          0.05942321	          0.25576466	          0.06432596	          0.05000039	          0.24204341	          0.11610075	          0.07062218	          0.05000155	          0.05000021	          0.05000017	          0.05000017	          0.07062169	          0.13880822	          0.05000128	          0.05000158	          0.05000261	          0.05000077	          0.26707328	          0.05005682	          0.05000135	          0.05000352	          0.05000215	          0.05000161	          0.28237945	          0.60919110	          0.05000047	          0.05000116	          0.05000020	          0.16619256	          0.14831956	          0.14620632	          0.14870153	          0.18356615	          0.24780373	          0.22705960	          0.20115846	          0.18074345	          0.23381690	          0.05000004	          0.07623183	          0.13854886	          0.05000024	          0.05000037	          0.05000021	          0.06072901	          0.05000002	          0.05000002	
